HIERARCHY
ROOT ui
{
	 OFFSET 0 0 0
	 CHANNELS 3 XPosition YPosition Z Position
	 EndSite
	 {
	 OFFSET 0 -1 0
	 }
}
ROOT li
{
	 OFFSET 0 0 0
	 CHANNELS 3 XPosition YPosition Z Position
	 EndSite
	 {
	 OFFSET 0 -1 0
	 }
}
ROOT ul
{
	 OFFSET 0 0 0
	 CHANNELS 3 XPosition YPosition Z Position
	 EndSite
	 {
	 OFFSET 0 -1 0
	 }
}
ROOT ll
{
	 OFFSET 0 0 0
	 CHANNELS 3 XPosition YPosition Z Position
	 EndSite
	 {
	 OFFSET 0 -1 0
	 }
}
ROOT tt
{
	 OFFSET 0 0 0
	 CHANNELS 3 XPosition YPosition Z Position
	 EndSite
	 {
	 OFFSET 0 -1 0
	 }
}
ROOT tb
{
	 OFFSET 0 0 0
	 CHANNELS 3 XPosition YPosition Z Position
	 EndSite
	 {
	 OFFSET 0 -1 0
	 }
}
ROOT td
{
	 OFFSET 0 0 0
	 CHANNELS 3 XPosition YPosition Z Position
	 EndSite
	 {
	 OFFSET 0 -1 0
	 }
}
ROOT v
{
	 OFFSET 0 0 0
	 CHANNELS 3 XPosition YPosition Z Position
	 EndSite
	 {
	 OFFSET 0 -1 0
	 }
}
ROOT bn
{
	 OFFSET 0 0 0
	 CHANNELS 3 XPosition YPosition Z Position
	 EndSite
	 {
	 OFFSET 0 -1 0
	 }
}
MOTION
Frames: 26
Frame Time: 0.002
-0.002640286922454834	0.0013858979940414428	0		0.4963353271484375	-2.321275634765625	0		-0.9543649291992188	0.025054698944091798	0		-0.70674951171875	-2.20692578125	0		1.7805018310546874	-0.33076776123046875	0		3.28031396484375	-0.031553865432739255	0		4.7327158203125	0.030499155044555665	0		5.61219775390625	0.10218766021728516	0		-0.07089703369140625	5.91467138671875	0		
-0.00323415207862854	0.0016244499683380127	0		0.4944932556152344	-2.322830810546875	0		-0.9549667358398437	0.024970396041870117	0		-0.6716729125976563	-2.21156298828125	0		1.7769482421875	-0.33386898803710935	0		3.258862060546875	-0.022820146560668945	0		4.72111376953125	0.03254451370239258	0		5.60671630859375	0.11242070007324219	0		-0.1916959228515625	5.90503857421875	0		
0.0059758458137512205	-0.007311615943908691	0		0.4407308349609375	-2.316459716796875	0		-0.9925780029296875	0.026559642791748047	0		-0.7085283813476563	-2.20888037109375	0		1.7595057373046874	-0.3287367248535156	0		3.28807666015625	-0.031037815093994142	0		4.7204755859375	0.03434457778930664	0		5.6166923828125	0.0943193359375	0		-0.21221438598632814	5.9085390625	0		
0.008377064704895019	-0.004122457981109619	0		0.5008406982421875	-2.315133544921875	0		-0.9751546630859375	0.031167020797729494	0		-0.7013566284179688	-2.201989501953125	0		1.7709901123046874	-0.3261473388671875	0		3.29987060546875	-0.004965431213378906	0		4.72189892578125	0.04105175399780273	0		5.6143251953125	0.11438008117675781	0		-0.06247331619262695	5.9230380859375	0		
0.007704394817352295	-0.00388567590713501	0		0.47596368408203127	-2.3093154296875	0		-0.94475634765625	0.035567447662353514	0		-0.701358154296875	-2.20196923828125	0		1.7845172119140624	-0.31961505126953127	0		3.256927978515625	-0.018996034622192383	0		4.72526318359375	0.045658157348632815	0		5.60465185546875	0.11848359680175781	0		-0.06590372467041015	5.92626953125	0		
-0.005880767822265625	0.0025612668991088867	0		0.49677334594726563	-2.319306884765625	0		-0.9576417236328125	0.024722497940063478	0		-0.7064910888671875	-2.20686279296875	0		1.755958251953125	-0.31639541625976564	0		3.256243408203125	-0.01782272148132324	0		4.7135615234375	0.04744580841064453	0		5.6087568359375	0.11025714111328125	0		-0.082521240234375	5.91471435546875	0		
-0.00658401107788086	0.00277253794670105	0		0.49671078491210935	-2.318956787109375	0		-0.9583510131835937	0.02467113494873047	0		-0.6455764770507812	-2.20686376953125	0		1.7771728515625	-0.32606399536132813	0		3.27642578125	-0.02406103515625	0		4.7287099609375	0.040693275451660155	0		5.603890625	0.10408564758300781	0		-0.2191879425048828	5.89614501953125	0		
0.002554809093475342	-0.006194058895111084	0		0.4966019287109375	-2.31862939453125	0		-0.996047119140625	0.026228723526000978	0		-0.7087551879882813	-2.208796875	0		1.756549072265625	-0.32507525634765627	0		3.260084716796875	-7.516310214996338E-4	0		4.72108740234375	0.04823407745361328	0		5.603119140625	0.10373975372314453	0		-0.2393623046875	5.90058203125	0		
0.0018411660194396972	-0.006012196063995361	0		0.47153524780273437	-2.312923095703125	0		-0.94169482421875	0.030276037216186522	0		-0.6679058227539062	-2.207452392578125	0		1.7820390625	-0.31688876342773437	0		3.275010986328125	-0.022033370971679688	0		4.7254892578125	0.057482093811035154	0		5.6065400390625	0.1152183380126953	0		-0.1932604064941406	5.9159248046875	0		
-0.005663297176361084	0.00726067590713501	0		0.5003438110351562	-2.313116455078125	0		-0.9853306884765625	0.03591003799438477	0		-0.7020333251953125	-2.201899658203125	0		1.7623992919921876	-0.3160172729492188	0		3.288491455078125	-0.00935050106048584	0		4.7265380859375	0.044690174102783205	0		5.59583251953125	0.11881661987304687	0		-0.07616120910644532	5.92514111328125	0		
4.2085599899291994E-4	-0.005707129001617432	0		0.49605029296875	-2.317803955078125	0		-0.889248046875	0.02231501770019531	0		-0.6364695434570312	-2.21494580078125	0		1.77463037109375	-0.323703125	0		3.26770849609375	-0.01319127655029297	0		4.7209462890625	0.053918132781982424	0		5.60022412109375	0.12807241821289062	0		-0.09427333831787109	5.91652001953125	0		
-2.7553901076316834E-4	-0.00558625078201294	0		0.49378543090820315	-2.319552490234375	0		-0.96192578125	0.02437795639038086	0		-0.709637451171875	-2.208817138671875	0		1.77399755859375	-0.3232274169921875	0		3.252015380859375	-0.012183574676513672	0		4.72511279296875	0.04690631103515625	0		5.600220703125	0.11129988098144532	0		-0.09615419006347656	5.9166220703125	0		
-0.010815696716308594	0.003665234088897705	0		0.49557000732421874	-2.317391845703125	0		-0.9566885986328125	0.01920492172241211	0		-0.6729392700195312	-2.211419677734375	0		1.7533797607421875	-0.32248858642578127	0		3.262120361328125	-0.02564251708984375	0		4.71139404296875	0.046090946197509766	0		5.59948828125	0.11044873809814452	0		-0.19997799682617187	5.91527099609375	0		
-0.0016115759611129762	-0.005410528182983399	0		0.46421630859375	-2.323756103515625	0		-1.0191597900390625	0.03205483627319336	0		-0.6931912231445313	-2.210156982421875	0		1.7598997802734375	-0.3142113037109375	0		3.28884423828125	-4.06468003988266E-4	0		4.7209404296875	0.06084075927734375	0		5.607083984375	0.12938424682617186	0		-0.2016728057861328	5.91531298828125	0		
8.077890276908874E-4	-0.0024005401134490965	0		0.50117724609375	-2.31018212890625	0		-0.9517388305664063	0.0349209098815918	0		-0.7033338012695313	-2.2020654296875	0		1.759324951171875	-0.3138670654296875	0		3.25005712890625	-0.010239197731018066	0		4.718244140625	0.05770092391967773	0		5.59231787109375	0.12257050323486328	0		-0.08607164764404297	5.9275751953125	0		
-0.012687702178955079	0.003827615022659302	0		0.4678885803222656	-2.31357861328125	0		-1.00147412109375	0.025540561676025392	0		-0.708656982421875	-2.20706298828125	0		1.749817138671875	-0.3114287109375	0		3.249471923828125	-0.00970624828338623	0		4.72252880859375	0.05038518524169922	0		5.5917421875	0.12546188354492188	0		-0.08756586456298829	5.92759716796875	0		
-0.0033590970039367677	-0.005304351806640625	0		0.4946339721679687	-2.31689306640625	0		-0.9650336303710938	0.023868982315063476	0		-0.6739423217773437	-2.211662841796875	0		1.7432071533203124	-0.31907388305664064	0		3.25383251953125	-0.01629989814758301	0		4.7061044921875	0.05930924987792969	0		5.5870400390625	0.11633494567871094	0		-0.10312299346923828	5.91580859375	0		
-0.0038350040912628175	-0.005306044101715088	0		0.44054058837890625	-2.311041259765625	0		-1.0024948120117188	0.025281133651733397	0		-0.7110951538085938	-2.209212646484375	0		1.747684326171875	-0.32491842651367187	0		3.2686630859375	0.004905157089233399	0		4.71458984375	0.057795223236083985	0		5.59651806640625	0.11492208862304687	0		-0.2424645233154297	5.9108095703125	0		
-0.014106332778930664	0.0038208611011505125	0		0.4963786010742188	-2.313816162109375	0		-0.9478345336914062	0.029347639083862304	0		-0.7061625366210937	-2.204386962890625	0		1.7574925537109376	-0.31287216186523437	0		3.25704296875	-0.009559799194335937	0		4.71417919921875	0.05834219360351563	0		5.59024609375	0.12566031646728515	0		-0.24355987548828126	5.91176416015625	0		
-0.0015101079940795898	-0.002395986080169678	0		0.471385009765625	-2.30843310546875	0		-0.9910771484375	0.034834800720214845	0		-0.7062423095703125	-2.20449169921875	0		1.7682379150390626	-0.3108714294433594	0		3.276927490234375	0.00447084379196167	0		4.7158857421875	0.060788856506347654	0		5.59506005859375	0.13615681457519532	0		-0.22459686279296875	5.905421875	0		
0.06234195327758789	0.0016506390571594239	0		0.4942734069824219	-2.3167548828125	0		-0.8944747314453125	0.021318365097045898	0		-0.7191743774414062	-2.199411865234375	0		1.752969970703125	-0.3165281982421875	0		3.251616455078125	-0.0019004909992218018	0		4.7156669921875	0.061195663452148434	0		5.59483447265625	0.13664666748046875	0		-0.09303840637207031	5.92747412109375	0		
-0.014734046936035156	0.003703705072402954	0		0.4943652954101562	-2.316759765625	0		-0.9665528564453125	0.023222080230712892	0		-0.6481986694335937	-2.207523681640625	0		1.75595458984375	-0.3124730224609375	0		3.2624326171875	-0.007835224151611328	0		4.7204501953125	0.053466217041015625	0		5.5995830078125	0.12698941040039063	0		-0.22693479919433593	5.9063125	0		
0.0721398468017578	-0.007575208187103271	0		0.5034358825683594	-2.3249013671875	0		-0.9665302734375	0.023105709075927735	0		-0.7110578002929687	-2.2097275390625	0		1.7400584716796874	-0.30817523193359375	0		3.261330078125	-0.016643810272216796	0		4.70255712890625	0.05999729919433594	0		5.6054560546875	0.1172437973022461	0		-0.22534797668457032	5.90421923828125	0		
-0.001650189995765686	-0.0025807600021362305	0		0.48081402587890626	-2.3176005859375	0		-0.9852993774414063	0.029267120361328124	0		-0.7036891479492188	-2.202917724609375	0		1.757163818359375	-0.31236651611328126	0		3.280855224609375	0.010219697952270507	0		4.72369775390625	0.05991681289672852	0		5.60384912109375	0.13553628540039062	0		-0.24546351623535156	5.9094365234375	0		
0.0667291488647461	0.005415393829345703	0		0.5012862548828125	-2.30990966796875	0		-0.9539739379882812	0.03373937225341797	0		-0.703332275390625	-2.20299755859375	0		1.757437255859375	-0.31233770751953127	0		3.25194873046875	-0.0012761579751968384	0		4.7190673828125	0.06814596557617188	0		5.59999072265625	0.1277918472290039	0		-0.22750868225097656	5.90612451171875	0		
-0.010892172813415528	0.007465987205505371	0		0.4686656799316406	-2.313474365234375	0		-0.9617150268554687	0.026777746200561524	0		-0.6350501708984375	-2.2140146484375	0		1.7408623046875	-0.30808645629882814	0		3.263220947265625	-0.007367359161376953	0		4.71633837890625	0.062298347473144534	0		5.58137353515625	0.13019601440429687	0		-0.09403419494628906	5.9272099609375	0		
